<svg id="Шар_1" data-name="Шар 1" xmlns="http://www.w3.org/2000/svg" viewBox="0 0 472 422"><defs><style>.cls-1{fill:#0c77d2;}.cls-2{fill:#fff;}</style></defs><title>logo2</title><path class="cls-1" d="M363.05,132.2c-6.74-32.2-23.53-58.06-49.85-77.47-22.5-16.6-48.13-24.35-76.21-25-9.34,1.13-18.83,1.57-28,3.53-27.86,5.95-51.3,19.58-69.84,41.53a126.8,126.8,0,0,0-30.32,92.57c.91,10.8,2.49,21.31,6,31.51,8.39,24.71,21,47.42,34.1,69.82q26.7,45.61,57.16,88.83c7.17,10.12,14.68,20,22.35,29.77,6,7.65,13.61,6.38,19.06-1,8.36-11.3,16.73-22.61,24.62-34.24,11.33-16.7,22.47-33.53,33.26-50.57,16.82-26.55,32.91-53.51,46.15-82.08,7.84-16.9,13-34.52,14.32-53.12A124.37,124.37,0,0,0,363.05,132.2ZM236,80.21c10.64-.66,22.85,9,23,23.31.1,13-10.9,23.24-24.34,23A23,23,0,0,1,212,102.9C212.31,89.74,223.47,79.22,236,80.21Zm44.88,173.3C266.58,274,247,284.06,222.21,281.07c-27.85-3.37-46.17-19.75-54.1-46.43-8.68-29.21,2.83-58,28.48-74.46.89-.58,3.53-2.39,3.53-2.39h3c1,6,1.75,10.73,2.49,15.53.08.55.39,2.27.39,2.27s-2,1.14-2.58,1.6a48.66,48.66,0,0,0-18.82,30.15c-5.19,25.6,11.85,51.68,37.6,55.62,18.59,2.85,33.47-4.89,44.31-20.13,2.49-3.12,6.68-11.39,6.68-11.39l3.06,0,8,17.47S283,250.48,280.87,253.51Zm34.61,1.3c-1,.54-2.11.95-3.13,1.5-9.19,4.85-15.76-.11-19-6.8-4.36-9.12-8.95-18.22-12.26-27.75-2.84-8.18-7.49-10.94-15.9-10.34-9.61.69-19.31.21-29,.15-10.51,0-16.76-5.47-18.41-15.79-2.44-15.24-5.08-30.46-7.26-45.73-.94-6.58,1.44-12.2,7.56-15.56s11.85-2.77,17.28,1.34A14.6,14.6,0,0,1,241.08,146c.58,4.43,1.14,8.87,1.75,13.66h35.63a30.51,30.51,0,0,1,4.49.12,9.22,9.22,0,0,1,8.13,9.73,8.8,8.8,0,0,1-9,8.26c-10.83.17-21.65.08-32.48.09h-4c.58,4.37,1.11,8.35,1.68,12.67,10.8,0,21.27.19,31.72-.06,7.84-.19,12.85,3.4,16,10.31,4.85,10.73,9.85,21.39,14.66,32.14,1,2.12,2,3.43,4.46,3.95a9.37,9.37,0,0,1,7.77,8.1C322.47,248.65,319.84,252.5,315.48,254.81Z"/><path class="cls-2" d="M259,103.52c.1,13-10.9,23.24-24.34,23A23,23,0,0,1,212,102.9c.28-13.16,11.44-23.68,24-22.69C246.63,79.55,258.84,89.18,259,103.52Z"/><path class="cls-2" d="M315.48,254.81c-1,.54-2.11.95-3.13,1.5-9.19,4.85-15.76-.11-19-6.8-4.36-9.12-8.95-18.22-12.26-27.75-2.84-8.18-7.49-10.94-15.9-10.34-9.61.69-19.31.21-29,.15-10.51,0-16.76-5.47-18.41-15.79-2.44-15.24-5.08-30.46-7.26-45.73-.94-6.58,1.44-12.2,7.56-15.56s11.85-2.77,17.28,1.34A14.6,14.6,0,0,1,241.08,146c.58,4.43,1.14,8.87,1.75,13.66h35.63a30.51,30.51,0,0,1,4.49.12,9.22,9.22,0,0,1,8.13,9.73,8.8,8.8,0,0,1-9,8.26c-10.83.17-21.65.08-32.48.09h-4c.58,4.37,1.11,8.35,1.68,12.67,10.8,0,21.27.19,31.72-.06,7.84-.19,12.85,3.4,16,10.31,4.85,10.73,9.85,21.39,14.66,32.14,1,2.12,2,3.43,4.46,3.95a9.37,9.37,0,0,1,7.77,8.1C322.47,248.65,319.84,252.5,315.48,254.81Z"/><path class="cls-2" d="M284.25,248.88s-1.27,1.6-3.38,4.63C266.58,274,247,284.06,222.21,281.07c-27.85-3.37-46.17-19.75-54.1-46.43-8.68-29.21,2.83-58,28.48-74.46.89-.58,3.53-2.39,3.53-2.39h3c1,6,1.75,10.73,2.49,15.53.08.55.39,2.27.39,2.27s-2,1.14-2.58,1.6a48.66,48.66,0,0,0-18.82,30.15c-5.19,25.6,11.85,51.68,37.6,55.62,18.59,2.85,33.47-4.89,44.31-20.13,2.49-3.12,6.68-11.39,6.68-11.39l3.06,0Z"/></svg>