<?xml version="1.0" encoding="utf-8"?>
<!-- Generator: Adobe Illustrator 24.3.0, SVG Export Plug-In . SVG Version: 6.00 Build 0)  -->
<svg version="1.1" id="Layer_1" xmlns="http://www.w3.org/2000/svg" xmlns:xlink="http://www.w3.org/1999/xlink" x="0px" y="0px"
	 viewBox="0 0 800 800" enable-background="new 0 0 800 800" xml:space="preserve">
<g>
	<path fill="#787EBB" d="M452.729,297.11v-36.645c14.007,3.944,24.314,16.805,24.314,32.056c0,18.375-14.948,33.325-33.325,33.325
		c-18.377,0-33.33-14.95-33.33-33.325c0-15.025,10-27.749,23.691-31.894v36.483H452.729z"/>
	<path fill="#787EBB" d="M233.59,301.846v-41.568c14.374,3.699,25.043,16.731,25.043,32.242c0,18.375-14.953,33.325-33.33,33.325
		c-18.377,0-33.325-14.95-33.325-33.325c0-14.757,9.648-27.286,22.962-31.656v40.982H233.59z"/>
	<path fill="#BFC6E4" d="M586.394,731.039H135.919c-35.707,0-64.756-29.05-64.756-64.756V193.97c0-7.422,6.042-13.462,13.464-13.462
		H214.94v61.077c-23.71,4.817-41.612,25.823-41.612,50.935c0,28.66,23.317,51.975,51.975,51.975c28.663,0,51.98-23.315,51.98-51.975
		c0-25.834-18.965-47.264-43.693-51.253v-60.76h200.489v60.966c-24.067,4.536-42.341,25.682-42.341,51.046
		c0,28.66,23.317,51.975,51.98,51.975c28.658,0,51.975-23.315,51.975-51.975c0-25.582-18.594-46.856-42.965-51.142v-60.87h133.665
		V457.61v56.886V731.039z"/>
	<path fill="#83C9EF" d="M728.838,666.283c0,35.706-29.05,64.756-64.756,64.756h-59.037V514.496V457.61V180.508h110.33
		c7.422,0,13.464,6.04,13.464,13.462V666.283z"/>
	<g>
		<path fill="#1D1751" d="M715.374,161.858H452.48c-3.812-62.147-55.557-111.548-118.645-111.548s-114.834,49.4-118.645,111.548
			H84.626c-17.708,0-32.114,14.404-32.114,32.112v472.313c0,45.99,37.414,83.406,83.406,83.406h528.163
			c45.992,0,83.406-37.416,83.406-83.406V193.97C747.488,176.263,733.081,161.858,715.374,161.858z M452.729,297.11v-36.645
			c14.007,3.944,24.314,16.805,24.314,32.056c0,18.375-14.948,33.325-33.325,33.325c-18.377,0-33.33-14.95-33.33-33.325
			c0-15.025,10-27.749,23.691-31.894v36.483H452.729z M333.835,68.961c52.796,0,96.084,41.052,99.872,92.897H233.963
			C237.751,110.013,281.039,68.961,333.835,68.961z M233.59,301.846v-41.568c14.374,3.699,25.043,16.731,25.043,32.242
			c0,18.375-14.953,33.325-33.33,33.325c-18.377,0-33.325-14.95-33.325-33.325c0-14.757,9.648-27.286,22.962-31.656v40.982H233.59z
			 M586.394,731.039H135.919c-35.707,0-64.756-29.05-64.756-64.756V193.97c0-7.422,6.042-13.462,13.464-13.462H214.94v61.077
			c-23.71,4.817-41.612,25.823-41.612,50.935c0,28.66,23.317,51.975,51.975,51.975c28.663,0,51.98-23.315,51.98-51.975
			c0-25.834-18.965-47.264-43.693-51.253v-60.76h200.489v60.966c-24.067,4.536-42.341,25.682-42.341,51.046
			c0,28.66,23.317,51.975,51.98,51.975c28.658,0,51.975-23.315,51.975-51.975c0-25.582-18.594-46.856-42.965-51.142v-60.87h133.665
			V457.61v56.886V731.039z M728.838,666.283c0,35.706-29.05,64.756-64.756,64.756h-59.037V514.496V457.61V180.508h110.33
			c7.422,0,13.464,6.04,13.464,13.462V666.283z"/>
	</g>
</g>
</svg>
